<svg width="184" height="39" viewBox="0 0 184 39" fill="none" xmlns="http://www.w3.org/2000/svg">
<g clip-path="url(#clip0_8_50)">
<path d="M24.8132 2.52451C21.8106 1.43823 18.6319 0.919398 15.4393 0.994494H11.5489C10.1551 0.994494 8.82245 1.071 7.55116 1.1628C6.27987 1.2546 5.1312 1.3311 4.08966 1.4229V9.33306C5.34563 9.24125 6.77005 9.16476 8.363 9.10356C9.89467 9.02706 11.5183 8.98116 13.0959 8.93526C14.6735 8.88935 16.006 8.93526 17.1241 8.93526C17.9704 8.86524 18.8222 8.96449 19.6296 9.2272C20.4369 9.48991 21.1838 9.91081 21.8264 10.4653C22.9323 11.7585 23.4827 13.4355 23.3581 15.1318V15.4684H15.9754C13.1059 15.4172 10.2481 15.8464 7.52059 16.7383C5.32576 17.4373 3.38628 18.7679 1.94528 20.5633C0.578554 22.4773 -0.106378 24.7938 2.07257e-05 27.1424C-0.0638951 29.3585 0.510262 31.5463 1.65426 33.446C2.76275 35.2042 4.35928 36.6023 6.24928 37.47C8.41774 38.4487 10.7782 38.9297 13.1571 38.8776C15.3964 38.9477 17.6194 38.4753 19.6361 37.5006C21.3622 36.6112 22.7973 35.2467 23.7716 33.5684C24.2333 32.7443 24.6031 31.8721 24.8744 30.9674V37.9902H32.3337V15.4684C32.4549 12.5824 31.7934 9.71723 30.4191 7.17574C29.122 5.04425 27.1488 3.40708 24.8132 2.52451ZM19.437 31.5947C18.2967 32.0685 17.0725 32.3079 15.8376 32.2985C14.0602 32.4198 12.3014 31.8743 10.9055 30.7685C10.3673 30.2453 9.93958 29.6196 9.64749 28.9285C9.3554 28.2374 9.20493 27.4948 9.20493 26.7446C9.20493 25.9944 9.3554 25.2518 9.64749 24.5607C9.93958 23.8695 10.3673 23.2439 10.9055 22.7207C12.3014 21.6149 14.0602 21.0693 15.8376 21.1906H23.3581V24.5414C23.3466 26.1486 22.9306 27.727 22.1481 29.1314C21.5259 30.2166 20.5773 31.0785 19.437 31.5947Z" fill="#FF76FD92"/>
<path d="M52.8734 5.11024C51.0431 7.50106 49.947 10.3712 49.7181 13.3723V1.57591H42.3354V37.9902H51.6634V19.0792C51.5746 17.7508 51.7584 16.4182 52.2035 15.1633C52.6487 13.9083 53.3457 12.7574 54.2519 11.7811C55.2321 10.8911 56.381 10.2064 57.6306 9.76757C58.8802 9.3287 60.2053 9.14454 61.5274 9.22597H64.0852V1.11691H62.7374C60.8969 0.983953 59.0504 1.27486 57.3402 1.9672C55.6301 2.65954 54.1019 3.73484 52.8734 5.11024Z" fill="#FF76FD92"/>
<path d="M92.069 2.52452C89.0717 1.43838 85.898 0.919525 82.7104 0.994503H78.8047C77.4262 0.994503 76.0936 1.071 74.8224 1.16281C73.5511 1.25461 72.387 1.33111 71.3608 1.42291V9.33307C72.6167 9.24126 74.0411 9.16477 75.6188 9.10357C77.1964 9.04237 78.7894 8.98117 80.3517 8.93527C81.914 8.88936 83.2619 8.93527 84.38 8.93527C85.2265 8.86177 86.0791 8.95936 86.887 9.22224C87.6949 9.48511 88.4415 9.90786 89.0822 10.4653C90.1882 11.7585 90.7386 13.4355 90.6139 15.1318V15.4684H83.2312C80.3616 15.4149 77.5034 15.8442 74.7764 16.7383C72.5799 17.434 70.6395 18.7652 69.201 20.5634C67.8343 22.4774 67.1495 24.7938 67.2559 27.1424C67.1874 29.357 67.7562 31.5447 68.8948 33.4461C70.0113 35.1974 71.6055 36.5935 73.4898 37.47C75.6638 38.4485 78.029 38.9294 80.4129 38.8776C82.6519 38.9441 84.8741 38.4718 86.892 37.5006C88.6368 36.6036 90.0799 35.2152 91.0427 33.5073C91.5096 32.6837 91.8846 31.8115 92.1609 30.9062V37.929H99.6048V15.4684C99.726 12.5824 99.0645 9.71724 97.6902 7.17575C96.3929 5.03849 94.4127 3.40001 92.069 2.52452ZM86.6928 31.5947C85.5573 32.0665 84.3385 32.3059 83.1087 32.2985C81.3309 32.4228 79.5712 31.8769 78.1767 30.7685C77.6347 30.2475 77.2035 29.6226 76.909 28.9311C76.6144 28.2397 76.4627 27.496 76.4627 26.7446C76.4627 25.9932 76.6144 25.2495 76.909 24.5581C77.2035 23.8666 77.6347 23.2417 78.1767 22.7207C79.5712 21.6123 81.3309 21.0664 83.1087 21.1907H90.6292V24.5414C90.6178 26.1486 90.2016 27.7271 89.4192 29.1314C88.7842 30.2119 87.8326 31.0718 86.6928 31.5947Z" fill="#FF76FD92"/>
<path d="M142.185 24.8015V31.0286C140.595 33.5869 138.304 35.6363 135.584 36.9345C132.561 38.3623 129.247 39.0694 125.904 39C122.933 39.0689 119.982 38.5002 117.25 37.3323C114.904 36.3241 112.812 34.8087 111.123 32.8952C109.559 31.0945 108.344 29.0193 107.539 26.7752C106.759 24.6052 106.354 22.3182 106.344 20.0125V18.8803C106.344 16.5538 106.748 14.2448 107.539 12.0565C108.329 9.84312 109.529 7.7981 111.077 6.02823C112.699 4.17777 114.7 2.69608 116.943 1.683C119.494 0.542589 122.267 -0.0166248 125.061 0.0458874C128.113 -0.0138676 131.139 0.613661 133.914 1.8819C136.357 3.03176 138.466 4.78541 140.041 6.97684C141.612 9.20286 142.539 11.8177 142.721 14.5351H134.435C134.215 13.2318 133.649 12.0113 132.796 11.0008C131.897 9.97044 130.769 9.16371 129.503 8.64456C128.082 8.07651 126.561 7.79569 125.031 7.81835C123.544 7.79054 122.068 8.0719 120.696 8.64456C119.454 9.19666 118.35 10.0171 117.464 11.0467C116.549 12.1394 115.862 13.4033 115.442 14.7646C114.973 16.2907 114.745 17.8807 114.768 19.477C114.751 21.1316 114.994 22.7786 115.488 24.3578C115.988 25.7349 116.764 26.9951 117.77 28.0604C118.738 29.1327 119.937 29.9701 121.278 30.5084C122.77 31.0938 124.362 31.3848 125.965 31.3652C128.041 31.4163 130.095 30.9259 131.923 29.9423C132.939 29.3898 133.835 28.6409 134.558 27.7391V24.6791H124.862V18.8803H157.426V24.878L142.185 24.8015Z" fill="#FF76FD92"/>
<path d="M184 18.8804V19.9973C184 20.2574 184 20.5175 184 20.7776C184 21.0377 184 21.3131 184 21.5579C183.864 23.3692 183.488 25.1545 182.882 26.867C182.096 29.1099 180.896 31.1858 179.344 32.9871C177.72 34.8437 175.721 36.3352 173.477 37.3629C170.927 38.5071 168.155 39.0715 165.36 39.0153H164.946C162.032 39.0325 159.15 38.4055 156.506 37.1793C154.054 36.0158 151.944 34.2398 150.38 32.0232C149.462 30.7543 148.773 29.3358 148.343 27.8309H157.533C157.559 27.8876 157.596 27.9394 157.64 27.9839C158.536 29.0219 159.664 29.8344 160.933 30.3554C162.351 30.9359 163.873 31.2222 165.405 31.1969C166.889 31.2274 168.362 30.9405 169.725 30.3554C170.673 29.9335 171.543 29.3541 172.298 28.6418L172.62 28.3358L172.773 28.1828L172.941 27.9839C173.55 27.2833 174.065 26.5067 174.473 25.6736C174.533 25.5447 174.584 25.4118 174.626 25.2758C174.708 25.1141 174.775 24.9451 174.825 24.7709C174.868 24.687 174.903 24.6001 174.933 24.5108C174.933 24.419 174.933 24.3272 174.933 24.2354C175.005 24.0571 175.061 23.8728 175.101 23.6846C175.101 23.501 175.193 23.3174 175.239 23.1185C175.361 22.5983 175.453 22.0475 175.53 21.4661V21.359C175.53 21.1601 175.53 20.9612 175.53 20.747C175.53 20.5328 175.53 19.9208 175.53 19.4771V18.8192C175.53 18.4214 175.53 18.0236 175.438 17.6563C175.34 16.6893 175.14 15.7354 174.841 14.8105C174.432 13.4448 173.743 12.1787 172.819 11.0926C171.937 10.058 170.832 9.2367 169.587 8.69048C168.22 8.11991 166.749 7.83858 165.268 7.86427C163.737 7.84161 162.217 8.12243 160.795 8.69048C159.527 9.20612 158.399 10.0134 157.502 11.0467C156.649 12.0572 156.083 13.2777 155.863 14.581H147.562C147.674 13.1546 147.978 11.7497 148.465 10.4041C148.909 9.20206 149.511 8.06483 150.257 7.02276C151.829 4.82807 153.938 3.07363 156.384 1.92783C159.158 0.652815 162.184 0.0199692 165.237 0.0765102C168.032 0.0203376 170.805 0.584723 173.355 1.72893C175.593 2.75126 177.592 4.2316 179.221 6.07416C179.942 6.9014 180.592 7.78673 181.166 8.72108C181.35 9.04238 181.534 9.34838 181.687 9.66968C181.84 9.99099 181.963 10.2052 182.085 10.4806C182.339 11.0088 182.564 11.5502 182.759 12.1024C183.355 13.7653 183.731 15.4986 183.878 17.2585C183.985 17.7481 184 18.3296 184 18.8804Z" fill="#FF76FD92"/>
</g>
<defs>
<clipPath id="clip0_8_50">
<rect width="184" height="39" fill="white"/>
</clipPath>
</defs>
</svg>
